HIERARCHY
ROOT Hips
{
  OFFSET -35.4901 99.2528 17.4586
  CHANNELS 6 Xposition Yposition Zposition Zrotation Xrotation Yrotation
  JOINT LeftUpLeg
  {
    OFFSET 8.64259 1.95398 -2.38835
    CHANNELS 3 Zrotation Xrotation Yrotation
    JOINT LeftLeg
    {
      OFFSET 43.7702 0 0
      CHANNELS 3 Zrotation Xrotation Yrotation
      JOINT LeftFoot
      {
        OFFSET 40.6238 0 0
        CHANNELS 3 Zrotation Xrotation Yrotation
        JOINT LeftToeBase
        {
          OFFSET 12.7242 0 0
          CHANNELS 3 Zrotation Xrotation Yrotation
          End Site
          {
            OFFSET 0 0 0
          }
        }
      }
    }
  }
  JOINT RightUpLeg
  {
    OFFSET -8.2249 1.95398 -2.59336
    CHANNELS 3 Zrotation Xrotation Yrotation
    JOINT RightLeg
    {
      OFFSET 43.5653 0 0
      CHANNELS 3 Zrotation Xrotation Yrotation
      JOINT RightFoot
      {
        OFFSET 40.6238 0 0
        CHANNELS 3 Zrotation Xrotation Yrotation
        JOINT RightToeBase
        {
          OFFSET 12.7242 0 0
          CHANNELS 3 Zrotation Xrotation Yrotation
          End Site
          {
            OFFSET 0 0 0
          }
        }
      }
    }
  }
  JOINT Spine
  {
    OFFSET 0.165834 0.87714 6.61349
    CHANNELS 3 Zrotation Xrotation Yrotation
    JOINT Spine1
    {
      OFFSET 7.38963 1.71661e-005 0
      CHANNELS 3 Zrotation Xrotation Yrotation
      JOINT Spine2
      {
        OFFSET 11.9445 1.14441e-005 0
        CHANNELS 3 Zrotation Xrotation Yrotation
        JOINT Spine3
        {
          OFFSET 14.7254 4.19617e-005 0
          CHANNELS 3 Zrotation Xrotation Yrotation
          JOINT Spine4
          {
            OFFSET 10.9679 0 0
            CHANNELS 3 Zrotation Xrotation Yrotation
            JOINT RightShoulder
            {
              OFFSET 2.46616 -1.6653 3.69651
              CHANNELS 3 Zrotation Xrotation Yrotation
              JOINT RightArm
              {
                OFFSET 13.0012 0 0
                CHANNELS 3 Zrotation Xrotation Yrotation
                JOINT RightForeArm
                {
                  OFFSET 28.7848 1.52588e-005 0
                  CHANNELS 3 Zrotation Xrotation Yrotation
                  JOINT RightHand
                  {
                    OFFSET 26.5688 1.52588e-005 0
                    CHANNELS 3 Zrotation Xrotation Yrotation
                    End Site
                    {
                      OFFSET 0 0 0
                    }
                  }
                }
              }
            }
            JOINT LeftShoulder
            {
              OFFSET 2.38034 -1.29275 -3.7523
              CHANNELS 3 Zrotation Xrotation Yrotation
              JOINT LeftArm
              {
                OFFSET 16.3182 6.10351e-005 0
                CHANNELS 3 Zrotation Xrotation Yrotation
                JOINT LeftForeArm
                {
                  OFFSET 27.0901 0 0
                  CHANNELS 3 Zrotation Xrotation Yrotation
                  JOINT LeftHand
                  {
                    OFFSET 24.5451 1.52588e-005 0
                    CHANNELS 3 Zrotation Xrotation Yrotation
                    End Site
                    {
                      OFFSET 0 0 0
                    }
                  }
                }
              }
            }
            JOINT Neck
            {
              OFFSET 5.0226 -0.0266342 0
              CHANNELS 3 Zrotation Xrotation Yrotation
              JOINT Head
              {
                OFFSET 6.69364 2.86102e-005 0
                CHANNELS 3 Zrotation Xrotation Yrotation
                End Site
                {
                  OFFSET 0 0 0
                }
              }
            }
          }
        }
      }
    }
  }
}
MOTION
Frames:	7
Frame Time:	0.0416667
13.1992 94.8084 -3.707 -98.6416 -41.0769 -102.815 178.873 17.6995 84.8013 -7.50917 21.6724 -0.651969 60.8742 1.07758 -6.2241 23.7357 -5.89013 9.49892 169.637 -13.5808 83.8454 -28.2177 -48.9546 -5.24346 80.7343 -13.8956 -5.24751 16.7031 -4.13294 9.67568 1.92671 8.26876 -89.6866 10.3357 3.98183 0.276993 -1.32918 3.99015 0.10119 -23.9082 3.71426 1.46253 -3.89559 3.71423 1.46252 87.1048 -28.9303 -112.949 30.7349 -8.5225 -11.953 -6.43959 -28.982 -28.6704 -26.1103 0.590559 -11.589 -81.2733 -56.3755 92.2663 -27.6004 5.29234 10.4991 3.8963 2.63175 -10.0007 -2.082 -0.0911992 -5.0185 -0.142178 -3.16094 2.12263 -1.4591 -3.45487 -8.3072 
5.62704 94.7769 3.51737 -99.3748 -34.4461 -104.932 179.268 16.2606 82.421 -19.2288 20.7357 -0.320233 59.8062 0.834924 -5.83847 22.6006 -4.00108 6.5497 170.68 -15.5899 81.4792 -41.0301 -49.2288 -13.5908 70.8957 -6.95029 -3.52913 28.048 -5.45253 14.541 2.17327 8.2685 -89.5354 10.3318 4.54229 0.52901 -1.33126 4.56115 0.328155 -23.9216 4.17294 1.87196 -3.90891 4.17296 1.87197 88.4074 -27.9888 -110.785 37.763 -8.95253 -9.00293 2.85513 -29.7922 -14.0258 -25.1844 -0.263124 -7.28501 -80.9179 -59.1043 92.9075 -24.4813 4.44394 6.64731 4.04668 0.510488 -10.7831 -0.46483 -0.107611 -5.39528 0.834177 -3.9486 2.52281 -2.94314 -4.1869 -9.74853 
-1.3213 94.8871 9.01552 -99.7153 -27.983 -106.178 -179.04 13.4159 81.1145 -28.6618 16.6254 -1.73048 69.9422 4.64969 -3.62878 15.4909 -1.70777 3.26877 172.254 -8.76571 77.5889 -54.8785 -44.9261 -12.2756 54.4648 1.76945 2.76888 36.0396 -1.20608 3.02449 1.72968 8.24424 -89.1538 10.3635 3.83318 1.34717 -1.30231 3.88874 1.17693 -23.8666 3.25107 2.43772 -3.85396 3.25106 2.43772 87.0752 -30.1382 -112.44 39.7828 -10.7175 -6.44723 9.01974 -29.4354 -5.33768 -21.09 -0.452331 -6.48652 -81.8846 -56.394 91.4078 -23.1486 6.75749 0.789796 2.99572 0.31001 -8.58046 -1.13072 -0.11197 -5.57535 1.25865 -3.59089 -0.732286 -2.73556 -3.38025 -7.859 
-7.35171 95.4938 12.397 -98.7272 -20.0567 -103.666 -178.17 8.50451 82.6697 -30.7331 10.138 -2.59441 75.9506 6.80117 -2.44042 14.5725 -0.449358 1.64441 177.835 2.87518 79.0916 -64.556 -29.2053 -8.39 63.2608 -1.9972 0.988467 28.1016 -1.23572 3.3149 1.3209 8.23114 -89.2136 10.3937 2.99159 1.29938 -1.2743 3.04589 1.16635 -23.8244 2.46279 2.13868 -3.81177 2.4628 2.13867 87.3968 -30.5821 -111.614 39.8655 -12.0662 -2.39238 6.9146 -30.2589 -9.22036 -21.9945 -0.162313 -8.31476 -82.8572 -54.4493 89.8714 -18.773 9.14653 -9.92098 1.28649 -0.0113494 -2.30896 -0.916929 -0.0988996 -5.06049 1.75438 -2.58722 -2.69566 -2.62047 -2.10242 -6.25974 
-13.3566 96.6874 14.3901 -97.607 -12.8906 -98.4357 -177.154 2.071 85.926 -28.5069 4.87906 -2.25691 77.6988 6.42027 -4.74204 18.6587 -4.8661 7.70051 -179.763 13.4902 84.8912 -59.966 -16.7941 -5.91488 71.8576 -6.60191 -2.64122 24.1421 -0.823392 2.61609 0.780413 8.17402 -89.605 10.524 1.73599 0.631431 -1.14591 1.76209 0.554389 -23.687 1.46598 1.12404 -3.67429 1.46598 1.12404 88.271 -30.085 -110.128 38.722 -12.0936 -0.198684 2.25892 -29.3916 -16.949 -22.7265 0.105828 -9.66935 -83.4846 -52.0799 88.7421 -15.1602 5.59005 -15.6214 2.89737 -0.232246 -4.36203 -0.729872 -0.104643 -5.41693 -0.397638 -0.962192 -3.94059 -1.54286 -0.427732 -4.35588 
-19.4999 96.9689 15.795 -96.1631 -7.194 -93.8773 -176.053 -2.65136 89.3959 -25.3973 0.000566965 -1.81045 80.1601 6.25732 -5.47826 20.091 -6.24927 9.6989 179.451 20.7632 91.0528 -42.5771 -15.6767 -3.68559 67.6327 -4.5488 -1.20241 24.622 -1.12175 3.27893 0.294432 8.11387 -89.8761 10.6457 0.643407 0.187937 -1.02511 0.651088 0.159432 -23.5612 0.557202 0.372622 -3.54853 0.557195 0.37263 88.0386 -32.0106 -109.769 36.3142 -9.68396 0.820394 -1.75221 -30.562 -21.4484 -24.1016 0.0428735 -9.28365 -83.8144 -48.34 87.8452 -12.4628 -0.199096 -18.663 5.60538 -0.0798519 -10.0829 1.69323 -0.194206 -7.29015 -0.432519 0.430282 -6.75657 -1.23829 1.33694 -0.90122 
-26.212 96.308 16.818 -94.9315 -5.24459 -91.41 -175.248 -7.88585 91.3361 -22.0141 -2.73584 -1.46373 83.7351 6.78719 -6.80981 18.389 -7.09951 10.7408 177.897 21.7024 94.4048 -18.1483 -17.0523 -1.4145 62.7641 -2.39569 -1.40077 21.8736 -1.83514 5.01071 -0.0892723 8.06439 -90.039 10.7456 -0.195656 -0.0591377 -0.925352 -0.198072 -0.0504765 -23.4606 -0.168867 -0.115209 -3.4479 -0.168823 -0.115203 88.5439 -33.3102 -108.295 36.9562 -6.03803 1.74479 -0.170351 -24.6783 -19.3041 -27.3525 0.231832 -8.75491 -84.262 -45.3633 86.7846 -11.1985 -4.14671 -24.3317 6.69134 -1.74132 -12.9741 3.95979 -0.252268 -7.30227 0.203333 0.0989466 -7.8979 -1.30843 1.21291 0.00453869 
